<svg width="50" height="42" viewBox="0 0 50 42" fill="none" xmlns="http://www.w3.org/2000/svg">
<path d="M1.82657 19.036L42.2554 19.0537L27.2824 4.08072C26.9073 3.70565 26.6966 3.19694 26.6966 2.66651C26.6966 2.13607 26.9073 1.62737 27.2824 1.25229C27.6575 0.87722 28.1662 0.666504 28.6966 0.666504C29.2271 0.666504 29.7358 0.87722 30.1108 1.25229L48.4956 19.6371C48.8707 20.0121 49.0814 20.5209 49.0814 21.0513C49.0814 21.5817 48.8707 22.0904 48.4956 22.4655L30.1108 40.8503C29.7358 41.2253 29.2271 41.4361 28.6966 41.4361C28.1662 41.4361 27.6575 41.2253 27.2824 40.8503C26.9073 40.4752 26.6966 39.9665 26.6966 39.4361C26.6966 38.9056 26.9073 38.3969 27.2824 38.0219L42.2554 23.0489L1.82657 23.0665C1.32628 23.0173 0.862198 22.7837 0.524593 22.4112C0.186989 22.0387 0 21.554 0 21.0513C0 20.5486 0.186988 20.0638 0.524592 19.6914C0.862196 19.3189 1.32628 19.0853 1.82657 19.036Z" fill="#FAFAFA"/>
</svg>
