<svg width="16" height="16" viewBox="0 0 16 16" fill="none" xmlns="http://www.w3.org/2000/svg">
<path d="M14.0669 5.9163L8.46693 11.533C8.40026 11.5996 8.32804 11.647 8.25026 11.675C8.17248 11.703 8.08915 11.7167 8.00026 11.7163C7.91137 11.7163 7.82804 11.7025 7.75026 11.675C7.67248 11.6474 7.60026 11.6001 7.53359 11.533L1.91693 5.9163C1.76137 5.76074 1.68359 5.5663 1.68359 5.33296C1.68359 5.09963 1.76693 4.89963 1.93359 4.73297C2.10026 4.5663 2.2947 4.48297 2.51693 4.48297C2.73915 4.48297 2.93359 4.5663 3.10026 4.73297L8.00026 9.63296L12.9003 4.73297C13.0558 4.57741 13.2476 4.49963 13.4756 4.49963C13.7036 4.49963 13.9007 4.58296 14.0669 4.74963C14.2336 4.9163 14.3169 5.11074 14.3169 5.33296C14.3169 5.55519 14.2336 5.74963 14.0669 5.9163Z" fill="#FCFBF5"/>
</svg>
