<svg width="82" height="82" viewBox="0 0 82 82" fill="none" xmlns="http://www.w3.org/2000/svg">
<mask id="mask0_2774_211" style="mask-type:alpha" maskUnits="userSpaceOnUse" x="0" y="0" width="82" height="82">
<rect width="81.8459" height="81.8459" fill="url(#paint0_linear_2774_211)"/>
</mask>
<g mask="url(#mask0_2774_211)">
<path d="M37.5127 71.6154V44.4187C33.8751 44.4187 30.3796 43.7224 27.0262 42.3299C23.6728 40.9374 20.7172 38.9623 18.1595 36.4046C15.6019 33.8469 13.641 30.8914 12.2769 27.538C10.9128 24.1846 10.2307 20.6891 10.2307 17.0515V10.231H17.0512C20.632 10.231 24.0991 10.9272 27.4525 12.3197C30.8059 13.7123 33.7614 15.6874 36.3191 18.245C38.0811 20.007 39.5446 21.9395 40.7098 24.0425C41.875 26.1454 42.7702 28.3905 43.3954 30.7777C43.6796 30.3798 43.9922 29.9962 44.3332 29.6267C44.6742 29.2573 45.0437 28.8736 45.4415 28.4758C47.9992 25.9181 50.9548 23.943 54.3082 22.5505C57.6616 21.158 61.1571 20.4617 64.7947 20.4617H71.6152V27.2822C71.6152 30.9198 70.9189 34.4153 69.5264 37.7687C68.1339 41.1221 66.1588 44.0777 63.6011 46.6354C61.0434 49.193 58.1021 51.1539 54.7771 52.518C51.4521 53.8821 47.9708 54.5642 44.3332 54.5642V71.6154H37.5127ZM37.5127 37.5129C37.5127 34.7847 36.9869 32.1844 35.9355 29.712C34.884 27.2396 33.392 25.0371 31.4595 23.1046C29.527 21.1722 27.3246 19.6802 24.8522 18.6287C22.3797 17.5772 19.7794 17.0515 17.0512 17.0515C17.0512 19.7797 17.5627 22.3942 18.5858 24.895C19.6089 27.3959 21.0867 29.6125 23.0191 31.545C24.9516 33.4775 27.1683 34.9553 29.6691 35.9783C32.17 37.0014 34.7845 37.5129 37.5127 37.5129ZM44.3332 47.7437C47.0614 47.7437 49.6617 47.2321 52.1341 46.2091C54.6066 45.186 56.809 43.7082 58.7415 41.7757C60.674 39.8433 62.1659 37.6266 63.2174 35.1258C64.2689 32.6249 64.7947 30.0104 64.7947 27.2822C62.0665 27.2822 59.452 27.8079 56.9511 28.8594C54.4503 29.9109 52.2336 31.4029 50.3011 33.3354C48.3687 35.2679 46.8909 37.4703 45.8678 39.9427C44.8447 42.4152 44.3332 45.0155 44.3332 47.7437Z" fill="url(#paint1_linear_2774_211)"/>
</g>
<defs>
<linearGradient id="paint0_linear_2774_211" x1="40.923" y1="0" x2="40.923" y2="143.58" gradientUnits="userSpaceOnUse">
<stop stop-color="#6666FF"/>
<stop offset="1" stop-color="#1F2223"/>
</linearGradient>
<linearGradient id="paint1_linear_2774_211" x1="40.9229" y1="10.231" x2="40.9229" y2="117.916" gradientUnits="userSpaceOnUse">
<stop stop-color="#6666FF"/>
<stop offset="1" stop-color="#1F2223"/>
</linearGradient>
</defs>
</svg>
