<svg width="100" height="100" viewBox="0 0 100 100" fill="none" xmlns="http://www.w3.org/2000/svg">
<mask id="mask0_2774_217" style="mask-type:alpha" maskUnits="userSpaceOnUse" x="0" y="0" width="100" height="100">
<rect width="99.9849" height="99.9849" fill="url(#paint0_linear_2774_217)"/>
</mask>
<g mask="url(#mask0_2774_217)">
<path d="M24.9962 82.2791C17.7751 80.4044 11.8038 76.5161 7.08226 70.6142C2.36075 64.7123 0 57.8384 0 49.9924C0 42.1463 2.36075 35.2724 7.08226 29.3705C11.8038 23.4686 17.7751 19.5803 24.9962 17.7056V26.4542C20.0664 28.1207 16.0566 31.1063 12.9668 35.4112C9.87698 39.7161 8.33207 44.5765 8.33207 49.9924C8.33207 55.4082 9.87698 60.2686 12.9668 64.5735C16.0566 68.8784 20.0664 71.864 24.9962 73.5305V82.2791ZM58.3245 83.3206C49.0898 83.3206 41.2264 80.0746 34.7343 73.5825C28.2423 67.0905 24.9962 59.2271 24.9962 49.9924C24.9962 40.7576 28.2423 32.8942 34.7343 26.4022C41.2264 19.9101 49.0898 16.6641 58.3245 16.6641C62.9071 16.6641 67.2121 17.532 71.2392 19.2678C75.2664 21.0037 78.8075 23.3992 81.8626 26.4542L76.0302 32.2867C73.7388 29.9954 71.083 28.2075 68.0626 26.9229C65.0422 25.6384 61.7962 24.9961 58.3245 24.9961C51.3811 24.9961 45.4792 27.4263 40.6189 32.2867C35.7585 37.1471 33.3283 43.049 33.3283 49.9924C33.3283 56.9357 35.7585 62.8376 40.6189 67.698C45.4792 72.5584 51.3811 74.9886 58.3245 74.9886C61.7962 74.9886 65.0422 74.3463 68.0626 73.0618C71.083 71.7773 73.7388 69.9893 76.0302 67.698L81.8626 73.5305C78.8075 76.5856 75.2664 78.981 71.2392 80.7169C67.2121 82.4527 62.9071 83.3206 58.3245 83.3206ZM83.3207 66.6565L77.4883 60.824L84.1539 54.1584H54.1585V45.8263H84.1539L77.4883 39.1607L83.3207 33.3282L99.9849 49.9924L83.3207 66.6565Z" fill="url(#paint1_linear_2774_217)"/>
</g>
<defs>
<linearGradient id="paint0_linear_2774_217" x1="49.9924" y1="0" x2="49.9924" y2="175.401" gradientUnits="userSpaceOnUse">
<stop stop-color="#6666FF"/>
<stop offset="1" stop-color="#1F2223"/>
</linearGradient>
<linearGradient id="paint1_linear_2774_217" x1="49.9924" y1="16.6641" x2="49.9924" y2="133.598" gradientUnits="userSpaceOnUse">
<stop stop-color="#6666FF"/>
<stop offset="1" stop-color="#1F2223"/>
</linearGradient>
</defs>
</svg>
