<svg width="150" height="34" viewBox="0 0 150 34" fill="none" xmlns="http://www.w3.org/2000/svg">
<g clip-path="url(#clip0_158_60)">
<path fill-rule="evenodd" clip-rule="evenodd" d="M64.1569 16.2401C65.0633 15.8894 65.841 15.2702 66.3858 14.4654C66.9306 13.6605 67.2165 12.7085 67.2054 11.7367C67.2054 7.68356 64.3301 5.67432 60.3809 5.67432H50.0229V27.7136H61.2816C64.7458 27.7136 68.1407 25.2886 68.1407 21.5819C68.1407 17.1755 64.1569 16.2817 64.1569 16.2401ZM55.4271 10.2471H59.4456C59.7029 10.2311 59.9608 10.2661 60.2046 10.3499C60.4484 10.4338 60.6733 10.5649 60.8663 10.7357C61.0594 10.9066 61.2169 11.1139 61.3297 11.3456C61.4426 11.5774 61.5087 11.8292 61.5241 12.0866C61.5241 12.1651 61.5241 12.2448 61.5241 12.3256C61.5132 12.8674 61.2886 13.3829 60.8993 13.7599C60.51 14.1369 59.9875 14.3448 59.4456 14.3383H55.3925L55.4271 10.2471ZM59.4802 23.0993H55.4618V18.769H59.3763C61.3509 18.769 62.2862 19.6351 62.2862 20.9168C62.2862 22.5173 61.1084 23.0993 59.4802 23.0993Z" fill="white"/>
<path fill-rule="evenodd" clip-rule="evenodd" d="M80.0574 5.12012C73.6832 5.12012 69.9419 10.2125 69.9419 16.6559C69.9419 23.0993 73.6832 28.1917 80.0574 28.1917C86.4315 28.1917 90.1728 23.134 90.1728 16.6559C90.1728 10.1779 86.4661 5.12012 80.0574 5.12012ZM80.0574 22.9261C76.9396 22.9261 75.3807 20.1201 75.3807 16.6559C75.3807 13.1917 76.9396 10.4203 80.0574 10.4203C83.1752 10.4203 84.7687 13.2264 84.7687 16.6559C84.7687 20.1548 83.1752 22.9261 80.0574 22.9261Z" fill="white"/>
<path fill-rule="evenodd" clip-rule="evenodd" d="M101.917 14.3349L101.155 14.1617C99.2839 13.7806 97.7943 13.2956 97.7943 11.9446C97.7943 10.4896 99.2147 9.90069 100.462 9.90069C101.313 9.91336 102.152 10.1014 102.927 10.4531C103.701 10.8048 104.395 11.3125 104.965 11.9446L108.395 8.54965C106.836 6.78291 104.307 5.08545 100.358 5.08545C95.7158 5.08545 92.1823 7.6836 92.1823 12.0139C92.1823 15.963 95.023 17.903 98.4872 18.6305L99.2493 18.8037C102.125 19.3926 103.198 19.843 103.198 21.2286C103.198 22.545 102.021 23.4111 100.219 23.4111C98.0715 23.4111 96.1315 22.4757 94.6419 20.5704L91.1431 24.0346C93.083 26.3557 95.5426 28.157 100.289 28.157C104.411 28.157 108.811 25.8014 108.811 20.9861C108.88 15.963 105.069 14.9931 101.917 14.3349Z" fill="white"/>
<path fill-rule="evenodd" clip-rule="evenodd" d="M121.143 22.9261C118.718 22.9261 116.189 20.9169 116.189 16.5174C116.189 12.6028 118.545 10.4204 121.004 10.4204C122.944 10.4204 124.088 11.3211 124.988 12.88L129.422 9.93539C127.205 6.57511 124.573 5.15479 120.935 5.15479C114.284 5.15479 110.681 10.3164 110.681 16.552C110.681 23.0994 114.665 28.2264 120.866 28.2264C125.231 28.2264 127.309 26.7021 129.561 23.4458L125.092 20.4388C124.192 21.8869 123.222 22.9261 121.143 22.9261Z" fill="white"/>
<path fill-rule="evenodd" clip-rule="evenodd" d="M144.215 5.67432V13.7806H137.529V5.67432H131.744V27.7067H137.529V19.0115H144.215V27.7067H150V5.67432H144.215Z" fill="white"/>
<path d="M16.6975 0.0623779C13.395 0.0623779 10.1667 1.04167 7.42086 2.87641C4.67497 4.71115 2.53482 7.31893 1.27103 10.37C0.00723474 13.4211 -0.323431 16.7784 0.320845 20.0173C0.96512 23.2563 2.5554 26.2315 4.89058 28.5667C7.22576 30.9019 10.201 32.4922 13.44 33.1365C16.6789 33.7807 20.0362 33.4501 23.0873 32.1863C26.1384 30.9225 28.7462 28.7823 30.5809 26.0364C32.4156 23.2906 33.3949 20.0623 33.3949 16.7598C33.3949 12.3314 31.6357 8.08433 28.5044 4.95295C25.373 1.82157 21.1259 0.0623779 16.6975 0.0623779ZM16.6975 31.8984C13.7033 31.8984 10.7765 31.0105 8.28693 29.3471C5.7974 27.6837 3.85706 25.3193 2.71125 22.5531C1.56545 19.7869 1.26566 16.743 1.84978 13.8064C2.43391 10.8699 3.87572 8.17242 5.99288 6.05525C8.11005 3.93809 10.8075 2.49628 13.7441 1.91215C16.6807 1.32803 19.7245 1.62782 22.4907 2.77362C25.257 3.91943 27.6213 5.85978 29.2847 8.3493C30.9482 10.8388 31.836 13.7657 31.836 16.7598C31.8351 20.7746 30.2399 24.6246 27.401 27.4634C24.5622 30.3022 20.7122 31.8975 16.6975 31.8984Z" fill="white"/>
<path d="M23.5914 6.33264H22.4482V12.0486H10.9817V6.33264H9.80385C8.07871 7.47074 6.6629 9.01908 5.6833 10.8389C4.7037 12.6587 4.19092 14.6932 4.19092 16.7599C4.19092 18.8266 4.7037 20.8611 5.6833 22.6809C6.6629 24.5007 8.07871 26.0491 9.80385 27.1871H10.9817V21.4781H22.4482V27.1941H23.5914C25.3173 26.0565 26.7338 24.5084 27.7139 22.6885C28.6941 20.8686 29.2071 18.8339 29.2071 16.7668C29.2071 14.6998 28.6941 12.6651 27.7139 10.8452C26.7338 9.02526 25.3173 7.47711 23.5914 6.33957V6.33264ZM9.38815 24.9423C8.31377 23.9877 7.43796 22.8308 6.81071 21.5377C6.18347 20.2446 5.81709 18.8406 5.73248 17.4059C5.64788 15.9712 5.84671 14.5338 6.31763 13.176C6.78855 11.8181 7.52233 10.5663 8.47706 9.49199C8.76322 9.17235 9.06741 8.86931 9.38815 8.58437V24.9423ZM22.4482 19.8846H10.9817V13.6075H22.4482V19.8846ZM24.0071 24.9077V21.4435V12.0486V8.58437C25.0788 9.54675 25.9504 10.7109 26.5721 12.0102C27.1938 13.3096 27.5534 14.7187 27.6302 16.1571C27.7071 17.5954 27.4998 19.0348 27.0202 20.3931C26.5406 21.7513 25.7981 23.0017 24.835 24.0728C24.5731 24.3625 24.2968 24.6388 24.0071 24.9008V24.9077Z" fill="white"/>
</g>
<defs>
<clipPath id="clip0_158_60">
<rect width="150" height="33.6028" fill="white"/>
</clipPath>
</defs>
</svg>
