<svg width="96" height="32" viewBox="0 0 96 32" fill="none" xmlns="http://www.w3.org/2000/svg">
<path d="M71.1156 11.2325V11.2725C71.1051 14.2451 69.9243 17.0926 67.8314 19.1923C65.7386 21.2919 62.9039 22.4729 59.9474 22.4769C57.8663 22.4779 55.818 21.9556 53.989 20.9574C53.7801 20.8441 53.5768 20.7239 53.3638 20.5982C53.0876 20.4305 52.8485 20.2077 52.6613 19.9434C52.474 19.6791 52.3427 19.3791 52.2754 19.0618C52.208 18.7445 52.2061 18.4166 52.2697 18.0986C52.3334 17.7805 52.4612 17.4789 52.6453 17.2124L57.4387 10.2807C57.6987 9.90461 58.0966 9.64778 58.545 9.5667C58.9933 9.48561 59.4553 9.58691 59.8293 9.84831C60.2033 10.1097 60.4587 10.5098 60.5394 10.9606C60.62 11.4113 60.5193 11.8758 60.2593 12.2519L56.1555 18.1849C57.3449 18.7341 58.6387 19.0169 59.9474 19.0138C61.9946 19.0112 63.9575 18.1936 65.4068 16.7398C66.856 15.286 67.6737 13.3143 67.681 11.2559V11.2242C67.6842 9.20856 66.9077 7.27069 65.5157 5.82021C64.136 4.37051 62.2432 3.52664 60.2483 3.47187C54.8985 3.31439 52.2647 7.4157 49.2161 12.1663L49.1996 12.1925C46.1029 17.0163 42.605 22.4714 35.5859 22.4714C35.4485 22.4714 35.3112 22.4714 35.182 22.4714C32.2871 22.3896 29.5409 21.1637 27.5392 19.0593C25.5284 16.9671 24.4073 14.1695 24.4136 11.2601V11.2228C24.4245 8.25014 25.6054 5.40272 27.6981 3.30293C29.7909 1.20314 32.6253 0.0217623 35.5818 0.0170361C37.6628 0.0165805 39.711 0.538902 41.5403 1.53655C41.7505 1.64983 41.9607 1.77001 42.1654 1.89571C42.4418 2.06328 42.681 2.28605 42.8684 2.55026C43.0557 2.81447 43.1872 3.11451 43.2547 3.43182C43.3221 3.74914 43.3242 4.077 43.2606 4.39513C43.1971 4.71327 43.0694 5.01493 42.8853 5.28147L38.0905 12.2132C37.9641 12.4048 37.8008 12.5691 37.6104 12.6964C37.42 12.8237 37.2062 12.9115 36.9816 12.9546C36.757 12.9977 36.5261 12.9953 36.3024 12.9475C36.0787 12.8997 35.8668 12.8074 35.6791 12.6761C35.4913 12.5449 35.3315 12.3772 35.2091 12.183C35.0867 11.9888 35.004 11.772 34.9661 11.5453C34.9281 11.3186 34.9355 11.0865 34.9879 10.8627C35.0404 10.6389 35.1367 10.4279 35.2713 10.242L39.3751 4.30898C38.1853 3.75966 36.891 3.47686 35.5818 3.48015C33.5347 3.48379 31.5723 4.30191 30.1232 5.75579C28.6741 7.20966 27.8563 9.18109 27.8483 11.2394V11.2698C27.8467 13.2807 28.6226 15.2135 30.0121 16.6599C31.3916 18.11 33.2846 18.9539 35.2796 19.0082H35.5749C40.727 19.0082 43.3181 14.9705 46.3118 10.3055L46.3269 10.2793C49.4868 5.36297 53.0588 -0.208129 60.3404 0.0059848C63.2351 0.0867358 65.9812 1.31289 67.9818 3.41799C69.9992 5.51274 71.1236 8.31657 71.1156 11.2325V11.2325Z" fill="white"/>
<path d="M11.1668 0.0209972C8.22594 0.0244376 5.40483 1.19278 3.31466 3.27291C1.2245 5.35304 0.0336061 8.17743 0 11.1342C0 11.1715 0 11.2102 0 11.2489V30.2732C0 30.7312 0.180933 31.1704 0.502997 31.4942C0.825061 31.818 1.26187 31.9999 1.71734 31.9999C2.17281 31.9999 2.60962 31.818 2.93168 31.4942C3.25375 31.1704 3.43468 30.7312 3.43468 30.2732V19.341C4.75174 20.6147 6.35957 21.544 8.1171 22.0473C9.87463 22.5506 11.7281 22.6125 13.515 22.2276C15.3019 21.8427 16.9675 21.0228 18.3658 19.8397C19.764 18.6567 20.8521 17.1467 21.5346 15.4423C22.2171 13.7378 22.4732 11.891 22.2803 10.0638C22.0874 8.2367 21.4515 6.48507 20.4284 4.96264C19.4053 3.44021 18.0262 2.19351 16.4121 1.33192C14.7981 0.470333 12.9984 0.0201935 11.171 0.0209972H11.1668ZM11.1668 19.026C9.63734 19.0258 8.14228 18.5695 6.87069 17.7149C5.5991 16.8603 4.60809 15.6458 4.02297 14.2249C3.43784 12.8041 3.28489 11.2407 3.58345 9.73241C3.882 8.22414 4.61866 6.83876 5.70026 5.75144C6.78187 4.66411 8.15986 3.92367 9.65997 3.62375C11.1601 3.32384 12.715 3.47791 14.128 4.06648C15.5411 4.65505 16.7488 5.65169 17.5985 6.93038C18.4482 8.20907 18.9017 9.71239 18.9017 11.2502C18.8996 13.3121 18.0839 15.2888 16.6337 16.7466C15.1836 18.2044 13.2175 19.0242 11.1668 19.026V19.026Z" fill="white"/>
<path d="M84.3654 0.0209991C82.5376 0.0196525 80.7374 0.469368 79.1229 1.33069C77.5083 2.192 76.1286 3.4386 75.1049 4.96107C74.0813 6.48355 73.4449 8.23537 73.2516 10.0628C73.0583 11.8903 73.3141 13.7375 73.9964 15.4424C74.6788 17.1472 75.7668 18.6577 77.1652 19.8411C78.5635 21.0246 80.2293 21.8449 82.0165 22.2301C83.8037 22.6152 85.6575 22.5535 87.4154 22.0503C89.1733 21.547 90.7815 20.6177 92.0989 19.3437V30.2732C92.0989 30.7312 92.2798 31.1704 92.6019 31.4942C92.9239 31.818 93.3607 31.9999 93.8162 31.9999C94.2717 31.9999 94.7085 31.818 95.0306 31.4942C95.3526 31.1704 95.5336 30.7312 95.5336 30.2732V11.2475C95.5292 8.2709 94.3511 5.41753 92.2575 3.31303C90.1639 1.20852 87.3258 0.0246531 84.3654 0.0209991V0.0209991ZM84.3654 19.026C82.8359 19.026 81.3407 18.57 80.069 17.7157C78.7972 16.8613 77.806 15.647 77.2206 14.2262C76.6353 12.8055 76.482 11.2421 76.7803 9.73376C77.0786 8.22545 77.815 6.83993 78.8964 5.75241C79.9779 4.66489 81.3557 3.92421 82.8558 3.62403C84.3558 3.32384 85.9107 3.47763 87.3239 4.06595C88.737 4.65427 89.9449 5.6507 90.7949 6.92924C91.6448 8.20778 92.0986 9.71101 92.0989 11.2489V11.2489C92.0971 13.3107 91.2817 15.2876 89.8319 16.7456C88.382 18.2037 86.416 19.0238 84.3654 19.026V19.026Z" fill="white"/>
</svg>
