<svg width="320" height="60" viewBox="0 0 320 60" fill="none" xmlns="http://www.w3.org/2000/svg">
<path d="M27.4179 20.67V49.2H16.9479V20.67H6.3999V11.54H37.9829V20.67H27.4179ZM62.3979 37.903H45.6979C45.684 38.5246 45.8006 39.1422 46.04 39.716C46.2794 40.2898 46.6364 40.807 47.088 41.2344C47.5396 41.6618 48.0757 41.9898 48.6618 42.1972C49.2479 42.4047 49.871 42.4871 50.4909 42.439C53.0674 42.4251 55.5953 41.7366 57.8229 40.442L61.6179 46.747C58.1879 48.859 54.242 49.9846 50.2139 50C41.6539 50 37.0139 43.95 37.0139 35.278C37.0139 25.521 42.5199 20.498 49.9379 20.498C57.3559 20.498 62.5379 25.634 62.5379 36.133C62.4239 36.818 62.4239 37.417 62.3949 37.903H62.3979ZM49.5579 27.546C47.3329 27.546 46.1059 29.058 45.7919 31.883H53.8659C53.3809 29.001 52.4109 27.546 49.5579 27.546ZM80.4279 49.886C72.1259 49.886 67.1899 44.608 67.1899 35.05C67.1899 26.49 71.5839 20.385 80.6559 20.385C85.2099 20.235 89.4429 22.723 91.5259 26.785L84.8499 31.91C83.5099 29.456 82.5959 28.258 80.4849 28.258C78.3739 28.258 76.7849 30.74 76.7849 35.218C76.7849 39.696 78.1249 42.018 80.7789 42.018C82.6049 42.018 83.8789 40.991 85.6859 38.338L91.8199 43.131C88.5199 48.011 85.4579 49.893 80.4359 49.893L80.4279 49.886ZM113.524 49.286V33.224C113.524 29.544 112.297 28.574 110.3 28.574C108.303 28.574 107 29.544 107 33.11V49.287H97.2999V13.88L107 10V22.867C109.008 21.22 111.536 20.341 114.133 20.385C120.333 20.385 123.291 24.55 123.291 31.968V49.286H113.524ZM146.504 49.886C135.291 49.886 129.386 41.584 129.386 30.428C129.386 18.302 136.519 10.97 146.504 10.97C155.776 10.97 159.428 14.936 162.024 22.068L152.552 25.768C151.182 22.268 149.899 20.062 146.446 20.062C142.081 20.062 140.198 24.427 140.198 30.419C140.198 36.411 142.024 40.747 146.56 40.747C149.84 40.747 151.24 38.977 153.293 35.412L162.138 40.12C159.458 46.302 153.235 50.185 146.503 49.877L146.504 49.886ZM186.048 31.656C185.512 30.9589 184.832 30.3861 184.054 29.9773C183.275 29.5685 182.418 29.3333 181.54 29.288C179.172 29.288 177.717 30.428 177.717 33.881V49.288H168.017V21.07H177.717V23.124C179.057 21.7103 180.838 20.7957 182.768 20.5312C184.697 20.2666 186.659 20.668 188.33 21.669L186.048 31.656ZM209.128 49.288V47.405C207.145 49.0564 204.632 49.9376 202.052 49.887C195.852 49.887 192.894 45.722 192.894 38.275V21.07H202.624V37.047C202.624 40.699 203.879 41.669 205.876 41.669C207.873 41.669 209.1 40.699 209.1 37.161V21.07H218.857V49.372L209.128 49.288ZM242.108 49.288V33.224C242.108 29.544 240.853 28.574 238.884 28.574C236.915 28.574 235.584 29.544 235.584 33.11V49.287H225.884V21.07H235.584V22.953C237.592 21.306 240.12 20.427 242.717 20.471C248.917 20.471 251.875 24.636 251.875 32.054V49.372L242.108 49.288ZM270.781 49.888C262.479 49.888 257.514 44.61 257.514 35.052C257.514 26.492 261.936 20.387 270.98 20.387C273.214 20.318 275.422 20.8813 277.35 22.0119C279.279 23.1425 280.848 24.7946 281.879 26.778L275.203 31.828C273.833 29.374 272.921 28.176 270.838 28.176C268.755 28.176 267.1 30.658 267.1 35.136C267.1 39.614 268.44 41.936 271.094 41.936C272.92 41.936 274.232 40.909 276.001 38.256L282.135 43.049C278.855 48.013 275.773 49.896 270.78 49.896L270.781 49.888ZM303.848 49.288V33.224C303.848 29.544 302.621 28.574 300.624 28.574C298.627 28.574 297.344 29.544 297.344 33.11V49.287H287.644V13.88L297.344 10V22.867C299.339 21.2163 301.859 20.3357 304.448 20.385C310.668 20.385 313.606 24.55 313.606 31.968V49.286L303.848 49.288Z" fill="white"/>
</svg>
