<svg width="52" height="43" viewBox="0 0 52 43" fill="none" xmlns="http://www.w3.org/2000/svg">
<path fill-rule="evenodd" clip-rule="evenodd" d="M36.9448 1.22144L23.4984 14.7379H12.0896L1.2251 25.6023H14.516V39.1187L28.0324 25.6023H39.3635L50.2279 14.7379H36.9448V1.22144ZM34.2073 7.78522V14.7379H27.2469L34.2073 7.78522ZM13.1861 17.4754H20.7687L15.3715 22.8648H7.79666L13.1861 17.4754ZM24.6727 17.4754H32.2553L26.7803 22.8648H19.2055L24.6727 17.4754ZM36.0816 17.4754H43.6642L38.2669 22.8648H30.6921L36.0816 17.4754ZM24.2061 25.5245L17.2535 32.4772V25.6023L24.2061 25.5245Z" fill="white"/>
<path fill-rule="evenodd" clip-rule="evenodd" d="M27.9546 33.7371V41.7785H30.2255C32.6455 41.7785 34.8372 41.0018 34.8372 37.7967C34.8372 34.5123 32.6455 33.7371 30.2255 33.7371H27.9546ZM29.5955 34.9814H30.5366C31.869 34.9814 33.1885 35.996 33.1885 37.7967C33.1885 39.5181 31.869 40.5342 30.5366 40.5342H29.5955V34.9814Z" fill="white"/>
<path fill-rule="evenodd" clip-rule="evenodd" d="M46.0209 33.7215C45.8318 33.7163 45.6464 33.7271 45.4609 33.737H42.5679V41.7785H44.2088V38.8076H44.4421H45.3831C46.0818 38.8076 46.3192 39.0443 46.5497 39.6709L47.4207 41.7785H49.3727L48.0429 38.971C47.8052 38.5028 47.7241 38.3454 47.3352 38.1077C47.3352 38.1077 48.7443 37.7186 48.665 36.1557C48.665 34.2398 47.3443 33.7576 46.0209 33.7215ZM44.2088 35.0591H45.3054C46.1625 35.0591 46.8665 35.2986 46.9385 36.1557V36.3812C46.8665 37.2455 46.1625 37.4778 45.3054 37.4778H44.2088V35.0591Z" fill="white"/>
<path fill-rule="evenodd" clip-rule="evenodd" d="M36.4766 41.7785H41.2447V40.4533H38.1115V33.7333H36.4766V41.7785Z" fill="white"/>
</svg>
