<svg width="34" height="17" viewBox="0 0 34 17" fill="none" xmlns="http://www.w3.org/2000/svg">
<path d="M33.859 8.49574V8.52426C33.8516 10.6403 33.0123 12.6673 31.5247 14.1619C30.0372 15.6565 28.0225 16.4972 25.9211 16.5C24.4419 16.5007 22.9861 16.1289 21.6861 15.4183C21.5376 15.3377 21.3931 15.2522 21.2418 15.1627C21.0454 15.0433 20.8754 14.8847 20.7424 14.6966C20.6093 14.5084 20.516 14.2949 20.4681 14.069C20.4202 13.8431 20.4189 13.6098 20.4641 13.3833C20.5093 13.1569 20.6002 12.9422 20.731 12.7526L24.138 7.81823C24.3228 7.55052 24.6056 7.3677 24.9243 7.30998C25.2429 7.25226 25.5713 7.32437 25.8371 7.51045C26.103 7.69652 26.2845 7.98133 26.3419 8.3022C26.3992 8.62307 26.3276 8.95373 26.1428 9.22143L23.226 13.4448C24.0713 13.8358 24.9909 14.0371 25.9211 14.0348C27.3762 14.033 28.7713 13.451 29.8014 12.4161C30.8315 11.3812 31.4126 9.97769 31.4178 8.51246V8.48984C31.4201 7.05504 30.8682 5.67558 29.8788 4.64307C28.8982 3.61112 27.5528 3.01041 26.135 2.97142C22.3325 2.85932 20.4606 5.77881 18.2937 9.16047L18.282 9.17915C16.081 12.6129 13.5948 16.4961 8.60591 16.4961C8.50826 16.4961 8.41061 16.4961 8.31882 16.4961C6.26123 16.4379 4.30936 15.5652 2.88658 14.0673C1.45744 12.5779 0.660605 10.5865 0.665058 8.51541V8.48886C0.672798 6.3728 1.51212 4.34588 2.99957 2.85116C4.48702 1.35644 6.50161 0.515491 8.60298 0.512127C10.0821 0.511803 11.5379 0.883613 12.838 1.59378C12.9874 1.67442 13.1368 1.75996 13.2823 1.84945C13.4788 1.96873 13.6488 2.12731 13.782 2.31539C13.9151 2.50346 14.0086 2.71704 14.0565 2.94292C14.1045 3.1688 14.1059 3.40218 14.0608 3.62864C14.0156 3.85511 13.9248 4.06984 13.794 4.25958L10.3861 9.1939C10.2962 9.33027 10.1802 9.4472 10.0448 9.53783C9.9095 9.62845 9.75755 9.69094 9.5979 9.72163C9.43825 9.75233 9.27412 9.7506 9.11515 9.71657C8.95617 9.68253 8.80554 9.61686 8.6721 9.52342C8.53866 9.42997 8.4251 9.31063 8.33808 9.1724C8.25106 9.03417 8.19232 8.87983 8.16533 8.71843C8.13833 8.55703 8.14362 8.39183 8.18088 8.23252C8.21814 8.07321 8.28662 7.923 8.3823 7.7907L11.2991 3.56732C10.4534 3.17629 9.53351 2.97498 8.60298 2.97732C7.14799 2.97991 5.75315 3.56228 4.72321 4.59721C3.69328 5.63214 3.11197 7.03549 3.10629 8.50066V8.52229C3.10517 9.95377 3.65666 11.3296 4.64427 12.3592C5.62474 13.3914 6.97021 13.9922 8.38816 14.0309H8.5981C12.26 14.0309 14.1016 11.1566 16.2294 7.83593L16.2401 7.81725C18.4861 4.31759 21.025 0.351845 26.2004 0.50426C28.2579 0.561742 30.2097 1.43457 31.6317 2.93307C33.0655 4.4242 33.8647 6.42009 33.859 8.49574Z" fill="#6666FF"/>
</svg>
