<svg width="227" height="32" viewBox="0 0 227 32" fill="none" xmlns="http://www.w3.org/2000/svg">
<g clip-path="url(#clip0_187_26)">
<path d="M31.8672 29.8508C31.8672 30.9462 30.971 31.8425 29.8755 31.8425H1.9917C0.896266 31.8425 0 30.9462 0 29.8508V17.9006C0 16.8051 0.633361 15.2755 1.4088 14.5001L14.5248 1.38404C15.2989 0.609941 16.567 0.609941 17.3411 1.38404L30.4584 14.5014C31.2325 15.2755 31.8672 16.8064 31.8672 17.9019V29.8521V29.8508Z" fill="#F2F4F9"/>
<path d="M30.4584 14.5001L17.3424 1.38404C16.5683 0.609941 15.3002 0.609941 14.5261 1.38404L1.4088 14.5001C0.634689 15.2742 0 16.8051 0 17.9006V29.8508C0 30.9462 0.896266 31.8425 1.9917 31.8425H14.2433L8.84847 26.4476C8.57095 26.5432 8.27486 26.5977 7.96681 26.5977C6.46639 26.5977 5.24481 25.3761 5.24481 23.8757C5.24481 22.3752 6.46639 21.1537 7.96681 21.1537C9.46722 21.1537 10.6888 22.3752 10.6888 23.8757C10.6888 24.185 10.6344 24.4811 10.5388 24.7586L14.7386 28.9585V13.5719C13.8357 13.1284 13.2116 12.2016 13.2116 11.1301C13.2116 9.62969 14.4332 8.40811 15.9336 8.40811C17.434 8.40811 18.6556 9.62969 18.6556 11.1301C18.6556 12.2016 18.0315 13.1284 17.1286 13.5719V24.363L21.3059 20.1857C21.2236 19.9255 21.1784 19.6493 21.1784 19.3625C21.1784 17.8621 22.4 16.6405 23.9004 16.6405C25.4008 16.6405 26.6224 17.8621 26.6224 19.3625C26.6224 20.8629 25.4008 22.0845 23.9004 22.0845C23.5685 22.0845 23.2524 22.0221 22.959 21.9132L17.1286 27.7435V31.8438H29.8755C30.971 31.8438 31.8672 30.9475 31.8672 29.8521V17.9019C31.8672 16.8065 31.2339 15.2768 30.4584 14.5014V14.5001Z" fill="#18BCF2"/>
<path d="M42.4951 6.18848H45.7827V14.288L54.3284 14.3146V6.18848H57.6479V25.5743H54.3284V17.2384L45.7827 17.2118V25.577H42.4897L42.4951 6.18848Z" fill="white"/>
<path d="M67.2931 12.1143C69.2981 12.1143 70.9317 12.7582 72.194 14.0462C73.4563 15.3341 74.0874 16.9899 74.0874 19.0135C74.0874 21.0273 73.4563 22.6782 72.194 23.9662C70.9317 25.2541 69.2981 25.8981 67.2931 25.8981C65.2695 25.8981 63.627 25.2541 62.3656 23.9662C61.1042 22.6782 60.4731 21.0273 60.4722 19.0135C60.4722 16.9775 61.1033 15.32 62.3656 14.0408C63.628 12.7618 65.2704 12.1196 67.2931 12.1143ZM67.2931 23.0712C68.365 23.0712 69.2361 22.6933 69.9062 21.9373C70.5763 21.1814 70.9109 20.1979 70.91 18.9869C70.91 17.7778 70.5754 16.7987 69.9062 16.0498C69.237 15.3009 68.3659 14.9274 67.2931 14.9291C66.1954 14.9291 65.3103 15.3028 64.6375 16.0498C63.9647 16.797 63.6274 17.7759 63.6257 18.9869C63.6257 20.1979 63.963 21.1814 64.6375 21.9373C65.312 22.6933 66.1972 23.0712 67.2931 23.0712Z" fill="white"/>
<path d="M96.4887 17.2382V25.5755H93.4348V17.7162C93.4348 16.8099 93.2015 16.1016 92.735 15.5917C92.2686 15.0819 91.6329 14.8265 90.8283 14.8256C89.9732 14.8256 89.2903 15.1044 88.7795 15.6621C88.2687 16.2198 88.0137 17.0001 88.0147 18.003V25.5715H84.9355V17.7162C84.9355 16.8099 84.7085 16.1016 84.2543 15.5917C83.8002 15.0819 83.1713 14.8265 82.3675 14.8256C81.5124 14.8256 80.8256 15.1044 80.3068 15.6621C79.788 16.2198 79.5287 17.0001 79.5287 18.003V25.5715H76.3911V12.4781H79.3123L79.4158 13.7355C80.1771 12.6202 81.4164 12.0625 83.1337 12.0625C84.1366 12.0625 85.0055 12.2701 85.7402 12.6852C86.474 13.0998 87.0589 13.7348 87.4119 14.5003C87.7289 13.7433 88.2897 13.1139 89.0052 12.7118C89.7435 12.2789 90.6229 12.0625 91.6436 12.0625C93.1307 12.0625 94.3107 12.5206 95.1835 13.4367C96.0562 14.3529 96.4914 15.6202 96.4887 17.2382Z" fill="white"/>
<path d="M111.705 20.1806H101.67C101.773 21.1658 102.145 21.9183 102.785 22.4379C103.425 22.9576 104.237 23.216 105.223 23.2133C106.821 23.2133 107.941 22.5494 108.581 21.2216L111.2 22.2586C110.73 23.3815 109.915 24.326 108.873 24.9554C107.811 25.6052 106.594 25.9296 105.223 25.9286C103.286 25.9286 101.715 25.2953 100.509 24.0286C99.3034 22.7618 98.7001 21.1 98.6992 19.0427C98.6992 16.9855 99.307 15.3129 100.522 14.0249C101.738 12.737 103.326 12.093 105.286 12.093C107.214 12.093 108.766 12.7281 109.942 13.9984C111.117 15.2687 111.705 16.9417 111.705 19.0174V20.1806ZM101.721 17.9751H108.516C108.455 16.9129 108.133 16.1025 107.55 15.5439C106.968 14.9854 106.183 14.7093 105.196 14.7154C104.222 14.7154 103.426 14.9982 102.806 15.5638C102.186 16.1295 101.825 16.9333 101.721 17.9751Z" fill="white"/>
<path d="M131.921 21.0625H124.544L122.951 25.577H119.553L126.554 6.19116H129.952L136.967 25.577H133.492L131.921 21.0625ZM130.963 18.2741L128.252 10.5198L125.516 18.2741H130.963Z" fill="white"/>
<path d="M143.118 23.3953C143.766 23.3953 144.279 23.2678 144.654 23.0129C144.839 22.8893 144.988 22.7197 145.087 22.5208C145.186 22.322 145.232 22.1008 145.219 21.8789C145.219 21.1797 144.747 20.7127 143.806 20.4781L142.003 19.9988C139.524 19.3242 138.285 18.0492 138.285 16.1734C138.285 14.9722 138.722 13.991 139.594 13.2297C140.467 12.4684 141.643 12.0882 143.121 12.0891C144.443 12.0891 145.549 12.3914 146.44 12.996C146.871 13.2758 147.238 13.6414 147.52 14.0697C147.803 14.4982 147.992 14.9802 148.08 15.4856L145.267 16.1495C145.243 15.9261 145.172 15.7101 145.059 15.5158C144.947 15.3216 144.794 15.1534 144.612 15.0222C144.204 14.7359 143.716 14.59 143.218 14.6066C142.656 14.6066 142.202 14.7473 141.857 15.0288C141.691 15.158 141.557 15.3244 141.466 15.5147C141.376 15.7049 141.332 15.9138 141.338 16.1242C141.334 16.2946 141.367 16.4639 141.433 16.6204C141.501 16.7771 141.6 16.9176 141.727 17.0325C141.987 17.2741 142.389 17.4685 142.932 17.6154L144.709 18.0562C145.893 18.3767 146.796 18.8608 147.419 19.5088C147.726 19.827 147.965 20.2027 148.125 20.6145C148.285 21.0261 148.36 21.4655 148.348 21.9068C148.348 23.1356 147.886 24.1123 146.961 24.8373C146.035 25.5623 144.761 25.9257 143.135 25.9274C141.631 25.9274 140.424 25.5968 139.517 24.9355C139.079 24.6247 138.709 24.2262 138.432 23.7652C138.155 23.3042 137.977 22.7907 137.909 22.2574L140.775 21.7515C140.792 21.9927 140.864 22.2271 140.983 22.4369C141.104 22.6468 141.27 22.8269 141.469 22.9637C141.889 23.2519 142.436 23.3953 143.118 23.3953Z" fill="white"/>
<path d="M155.016 23.3953C155.665 23.3953 156.176 23.2625 156.553 23.0129C156.738 22.889 156.887 22.7192 156.985 22.5204C157.083 22.3216 157.128 22.1005 157.116 21.8789C157.116 21.1797 156.645 20.7127 155.704 20.4781L153.902 19.9988C151.423 19.3242 150.184 18.0492 150.184 16.1734C150.184 14.9722 150.621 13.991 151.493 13.2297C152.366 12.4684 153.542 12.0882 155.02 12.0891C156.342 12.0891 157.448 12.3914 158.339 12.996C158.77 13.276 159.137 13.6417 159.419 14.0699C159.702 14.4982 159.893 14.9802 159.981 15.4856L157.166 16.1495C157.142 15.9261 157.071 15.7101 156.958 15.5158C156.846 15.3216 156.693 15.1534 156.511 15.0222C156.103 14.7359 155.615 14.59 155.117 14.6066C154.555 14.6066 154.101 14.7473 153.756 15.0288C153.59 15.1581 153.456 15.3246 153.365 15.5148C153.276 15.7051 153.231 15.9138 153.237 16.1242C153.233 16.2946 153.266 16.4639 153.334 16.6204C153.4 16.7771 153.5 16.9176 153.626 17.0325C153.891 17.2741 154.29 17.468 154.833 17.6154L156.609 18.0562C157.792 18.3767 158.695 18.8608 159.319 19.5088C159.625 19.8271 159.865 20.203 160.024 20.6146C160.184 21.0262 160.261 21.4655 160.249 21.9068C160.249 23.1356 159.787 24.1123 158.861 24.8373C157.936 25.5623 156.661 25.9257 155.036 25.9274C153.531 25.9274 152.324 25.5968 151.418 24.9355C150.979 24.6247 150.609 24.2262 150.333 23.7652C150.055 23.3042 149.877 22.7907 149.81 22.2574L152.676 21.7515C152.694 21.9927 152.764 22.227 152.885 22.4369C153.004 22.6467 153.17 22.8269 153.369 22.9637C153.786 23.2519 154.333 23.3953 155.016 23.3953Z" fill="white"/>
<path d="M162.245 7.94383C162.241 7.68167 162.289 7.42125 162.386 7.17802C162.484 6.93479 162.63 6.71374 162.815 6.52796C163.001 6.34218 163.221 6.19549 163.464 6.09657C163.707 5.99765 163.967 5.94853 164.229 5.95213C164.489 5.94812 164.747 5.99783 164.987 6.09813C165.226 6.19842 165.444 6.34716 165.623 6.53503C165.994 6.90815 166.202 7.41266 166.202 7.93852C166.202 8.46437 165.994 8.96889 165.623 9.342C165.444 9.53189 165.229 9.68249 164.989 9.78422C164.748 9.88595 164.489 9.93658 164.229 9.93288C163.967 9.93629 163.709 9.88555 163.467 9.78387C163.225 9.68219 163.009 9.53175 162.828 9.342C162.642 9.16033 162.494 8.9428 162.394 8.70252C162.293 8.46223 162.243 8.20415 162.245 7.94383ZM165.799 12.4823V25.5783H162.66V12.4783L165.799 12.4823Z" fill="white"/>
<path d="M173.391 23.3953C174.039 23.3953 174.551 23.2678 174.927 23.0129C175.112 22.8891 175.26 22.7194 175.36 22.5207C175.458 22.3219 175.503 22.1007 175.491 21.8789C175.491 21.1797 175.02 20.7127 174.077 20.4781L172.276 19.9988C169.797 19.3242 168.558 18.0492 168.558 16.1734C168.558 14.9722 168.995 13.991 169.867 13.2297C170.739 12.4684 171.916 12.0882 173.395 12.0891C174.717 12.0891 175.823 12.3914 176.714 12.996C177.143 13.2763 177.511 13.6419 177.794 14.0703C178.075 14.4986 178.267 14.9803 178.354 15.4856L175.541 16.1495C175.517 15.9261 175.446 15.7101 175.333 15.5158C175.221 15.3216 175.068 15.1534 174.886 15.0222C174.478 14.7362 173.99 14.5904 173.492 14.6066C172.93 14.6066 172.476 14.7473 172.129 15.0288C171.963 15.1583 171.831 15.3248 171.74 15.5151C171.65 15.7053 171.606 15.9139 171.612 16.1242C171.608 16.2946 171.641 16.4639 171.707 16.6204C171.775 16.7771 171.875 16.9176 172.001 17.0325C172.26 17.2741 172.662 17.4685 173.206 17.6154L174.983 18.0562C176.167 18.3767 177.07 18.8608 177.693 19.5088C178 19.827 178.239 20.2027 178.399 20.6145C178.559 21.0261 178.634 21.4655 178.622 21.9068C178.622 23.1356 178.16 24.1123 177.235 24.8373C176.309 25.5623 175.035 25.9257 173.409 25.9274C171.905 25.9274 170.699 25.5968 169.793 24.9355C169.353 24.6251 168.984 24.2268 168.706 23.7656C168.43 23.3046 168.252 22.791 168.185 22.2574L171.05 21.7515C171.067 21.9927 171.138 22.227 171.258 22.4369C171.378 22.6467 171.544 22.8269 171.743 22.9637C172.16 23.2519 172.707 23.3953 173.391 23.3953Z" fill="white"/>
<path d="M187.998 25.5742C187.25 25.7545 186.484 25.8546 185.715 25.8729C184.393 25.8729 183.362 25.5096 182.623 24.7828C181.883 24.0561 181.514 22.9757 181.514 21.5416V15.1363H179.504V12.4808H181.514V8.3938H184.627V12.4781H187.647V15.1337H184.627V20.976C184.627 22.3924 185.175 23.1005 186.273 23.1005C186.727 23.0815 187.176 22.9895 187.601 22.8283L187.998 25.5742Z" fill="white"/>
<path d="M198.508 25.5742C198.395 25.084 198.321 24.5853 198.288 24.0831C197.88 24.6678 197.322 25.1316 196.673 25.4255C195.915 25.7712 195.089 25.9419 194.255 25.9247C192.82 25.9247 191.669 25.5423 190.803 24.7775C189.937 24.0127 189.506 22.9776 189.507 21.6718C189.507 20.3918 189.933 19.3912 190.784 18.6696C191.635 17.9482 192.8 17.5871 194.278 17.5862H198.215V17.0816C198.215 16.2602 197.974 15.6462 197.495 15.2399C197.016 14.8336 196.344 14.6305 195.479 14.6305C193.95 14.6305 192.852 15.2701 192.185 16.5491L189.904 15.2134C191.01 13.1305 192.925 12.0891 195.648 12.0891C197.298 12.0891 198.65 12.5127 199.706 13.3598C200.761 14.2069 201.292 15.5857 201.299 17.4959V22.7088C201.299 24.1863 201.376 25.1413 201.531 25.5742H198.508ZM198.242 19.7518H195.013C194.279 19.7518 193.709 19.9204 193.302 20.2577C193.1 20.4265 192.941 20.6394 192.834 20.8802C192.728 21.1208 192.68 21.3827 192.692 21.6452C192.692 22.2587 192.899 22.7257 193.315 23.0461C193.731 23.3661 194.321 23.5254 195.092 23.5254C196.016 23.5254 196.773 23.2338 197.361 22.6504C197.949 22.0671 198.244 21.2004 198.242 20.0506V19.7518Z" fill="white"/>
<path d="M216.37 17.4959V25.5742H213.245V18.1678C213.245 16.9223 212.952 16.0708 212.364 15.6131C211.809 15.1575 211.11 14.9143 210.392 14.9266C209.975 14.9143 209.559 14.9846 209.17 15.1336C208.781 15.2827 208.424 15.5075 208.123 15.795C207.518 16.3739 207.217 17.1994 207.216 18.2713V25.5742H204.078V12.4782H207.021L207.124 13.8909C207.53 13.3093 208.092 12.8535 208.745 12.5751C209.474 12.2469 210.267 12.0811 211.066 12.0891C212.761 12.0891 214.069 12.5579 214.989 13.4952C215.909 14.4327 216.37 15.7663 216.37 17.4959Z" fill="white"/>
<path d="M226.387 25.5742C225.64 25.7529 224.875 25.8517 224.106 25.8689C222.783 25.8689 221.753 25.5056 221.014 24.7788C220.274 24.0521 219.905 22.9717 219.905 21.5376V15.1363H217.895V12.4808H219.905V8.3938H223.016V12.4781H226.038V15.1337H223.016V20.976C223.016 22.3924 223.566 23.1005 224.664 23.1005C225.118 23.0815 225.567 22.9895 225.991 22.8283L226.387 25.5742Z" fill="white"/>
</g>
<defs>
<clipPath id="clip0_187_26">
<rect width="226.39" height="32" fill="white"/>
</clipPath>
</defs>
</svg>
