<svg width="40" height="40" viewBox="0 0 40 40" fill="none" xmlns="http://www.w3.org/2000/svg">
<g clip-path="url(#clip0_192_165)">
<path fill-rule="evenodd" clip-rule="evenodd" d="M40 20C40 8.95469 31.0453 0 20 0C8.95469 0 0 8.95469 0 20C0 31.0453 8.95469 40 20 40C31.0453 40 40 31.0453 40 20ZM9.05312 19.7891C14.8836 17.2484 18.7711 15.5742 20.7164 14.7648C26.2711 12.4547 27.425 12.0531 28.1773 12.0398C28.343 12.0375 28.7125 12.0781 28.9523 12.2727C29.1547 12.4367 29.2102 12.6586 29.2367 12.8141C29.2633 12.9703 29.2969 13.3242 29.2703 13.6016C28.9695 16.7641 27.6672 24.4383 27.0047 27.9805C26.7242 29.4797 26.1719 29.982 25.6375 30.0312C24.4766 30.1383 23.5945 29.2633 22.4695 28.5258C20.7094 27.3727 19.7148 26.6539 18.0062 25.5281C16.0312 24.2266 17.3117 23.5117 18.4367 22.343C18.7313 22.0367 23.8484 17.382 23.9477 16.9602C23.9602 16.907 23.9719 16.7102 23.8547 16.6062C23.7375 16.5023 23.5648 16.5383 23.4406 16.5664C23.2641 16.6063 20.4523 18.4648 15.0047 22.1422C14.2062 22.6906 13.4828 22.957 12.8352 22.9437C12.1211 22.9281 10.7477 22.5398 9.72656 22.2078C8.47422 21.8008 7.47891 21.5852 7.56562 20.8938C7.61016 20.5336 8.10625 20.1656 9.05312 19.7891Z" fill="#6666FF"/>
</g>
<defs>
<clipPath id="clip0_192_165">
<rect width="40" height="40" fill="white"/>
</clipPath>
</defs>
</svg>
