<svg width="40" height="29" viewBox="0 0 40 29" fill="none" xmlns="http://www.w3.org/2000/svg">
<g clip-path="url(#clip0_192_163)">
<path fill-rule="evenodd" clip-rule="evenodd" d="M29.5458 28.5178C29.5458 28.5178 28.3119 27.044 27.2836 25.7757C31.7737 24.5076 33.4875 21.7312 33.4875 21.7312C32.0821 22.6566 30.7454 23.3079 29.5458 23.7534C27.8319 24.4732 26.1866 24.9188 24.5757 25.2273C21.2852 25.8444 18.269 25.6729 15.6983 25.1931C13.7445 24.816 12.065 24.3019 10.6597 23.7191C9.87133 23.4108 9.01445 23.0336 8.15758 22.5537C8.05477 22.4852 7.95188 22.4509 7.84914 22.3824C7.78063 22.3482 7.74633 22.3138 7.71203 22.3138C7.095 21.971 6.75227 21.7312 6.75227 21.7312C6.75227 21.7312 8.39758 24.4389 12.7506 25.7414C11.7223 27.044 10.4541 28.5521 10.4541 28.5521C2.87922 28.3121 0 23.3764 0 23.3764C0 12.4424 4.9357 3.56506 4.9357 3.56506C9.87141 -0.102444 14.533 0.000368535 14.533 0.000368535L14.8758 0.411619C8.70617 2.15974 5.89539 4.86756 5.89539 4.86756C5.89539 4.86756 6.64953 4.45623 7.91773 3.90779C11.5853 2.29677 14.4987 1.88552 15.6984 1.74842C15.9041 1.71412 16.0755 1.67982 16.281 1.67982C18.3719 1.4056 20.737 1.33709 23.2048 1.61123C26.461 1.98826 29.9571 2.94802 33.5218 4.86748C33.5218 4.86748 30.814 2.2967 24.9871 0.54865L25.467 0.00029041C25.467 0.00029041 30.1627 -0.1026 35.0642 3.56498C35.0642 3.56498 40 12.4424 40 23.3763C40 23.3421 37.1208 28.2778 29.5459 28.5177L29.5458 28.5178ZM26.1181 12.648C24.1645 12.648 22.622 14.3276 22.622 16.4185C22.622 18.5094 24.1988 20.1888 26.1181 20.1888C28.0719 20.1888 29.6144 18.5094 29.6144 16.4185C29.6144 14.3276 28.0377 12.648 26.1181 12.648ZM13.6076 12.648C11.6538 12.648 10.1114 14.3276 10.1114 16.4185C10.1114 18.5094 11.6881 20.1888 13.6076 20.1888C15.5613 20.1888 17.1037 18.5094 17.1037 16.4185C17.138 14.3276 15.5613 12.648 13.6076 12.648Z" fill="#6666FF"/>
</g>
<defs>
<clipPath id="clip0_192_163">
<rect width="40" height="28.5521" fill="white"/>
</clipPath>
</defs>
</svg>
